<svg width="135" height="56" viewBox="0 0 135 56" fill="none" xmlns="http://www.w3.org/2000/svg">
<g id="Dummy Logo/02" clip-path="url(#clip0_4_994)">
<g id="Group">
<path id="Vector" d="M0 24.3354V29.2599C1.69031 29.2588 3.36427 29.5894 4.92608 30.233C6.4879 30.8766 7.90692 31.8204 9.10195 33.0106C10.2967 34.2002 11.2442 35.6127 11.8902 37.1672C12.5363 38.7217 12.8683 40.3877 12.8672 42.0699H17.8102C17.8057 37.3684 15.9279 32.8607 12.589 29.5359C9.24998 26.2111 4.7225 24.3408 0 24.3354H0Z" fill="black"/>
<path id="Vector_2" d="M24.7197 15.47H16.8862C20.849 17.9701 24.2069 21.3125 26.7187 25.2574V17.4587C26.7184 16.9311 26.5076 16.4253 26.1327 16.0524C25.7579 15.6794 25.2497 15.47 24.7197 15.47Z" fill="black"/>
<path id="Vector_3" d="M4.92188 15.47H0V19.9038C5.90327 19.9099 11.563 22.2472 15.7373 26.4028C19.9116 30.5584 22.2595 36.1929 22.2659 42.07H26.7188V37.17C25.712 31.7845 23.0906 26.8289 19.1999 22.9554C15.3091 19.082 10.3313 16.4723 4.92188 15.47Z" fill="black"/>
<path id="Vector_4" d="M38.8341 18.3979H35.6968V34.1409H38.8341V18.3979Z" fill="black"/>
<path id="Vector_5" d="M50.37 25.2189C49.8477 24.7462 49.2363 24.3814 48.5714 24.1458C47.143 23.6464 45.5863 23.6464 44.1579 24.1458C43.4926 24.3813 42.881 24.746 42.3586 25.2189C41.8462 25.6891 41.4369 26.2596 41.1562 26.8947C40.8661 27.5874 40.7168 28.3305 40.7168 29.0811C40.7168 29.8317 40.8661 30.5748 41.1562 31.2676C41.4358 31.9044 41.8452 32.4765 42.3586 32.9476C42.8801 33.4207 43.4914 33.7853 44.1565 34.02C45.5847 34.5202 47.1417 34.5202 48.57 34.02C49.2353 33.7853 49.8468 33.4207 50.3686 32.9476C50.8817 32.4763 51.2911 31.9043 51.5709 31.2676C51.861 30.5748 52.0103 29.8317 52.0103 29.0811C52.0103 28.3305 51.861 27.5874 51.5709 26.8947C51.2905 26.2598 50.8817 25.6894 50.37 25.2189ZM48.2156 30.9351C47.7076 31.3907 47.048 31.6428 46.3643 31.6428C45.6805 31.6428 45.021 31.3907 44.5129 30.9351C44.0859 30.4103 43.8529 29.7554 43.8529 29.0801C43.8529 28.4047 44.0859 27.7498 44.5129 27.2251C45.021 26.7694 45.6805 26.5173 46.3643 26.5173C47.048 26.5173 47.7076 26.7694 48.2156 27.2251C48.6426 27.7498 48.8756 28.4047 48.8756 29.0801C48.8756 29.7554 48.6426 30.4103 48.2156 30.9351Z" fill="black"/>
<path id="Vector_6" d="M61.633 25.3541H61.5936C61.4485 25.1513 61.28 24.9662 61.0916 24.8025C60.8633 24.6014 60.6105 24.4298 60.3392 24.2915C59.6535 23.9412 58.8923 23.7627 58.1216 23.7714C57.4462 23.7596 56.7783 23.9135 56.1767 24.2194C55.6162 24.5083 55.1213 24.9088 54.7227 25.3961C54.3162 25.8983 54.0044 26.4696 53.8023 27.0824C53.5874 27.7137 53.4779 28.3758 53.4782 29.0424C53.4702 29.7579 53.5907 30.469 53.8339 31.1424C54.0543 31.7568 54.3978 32.3203 54.8436 32.7986C55.2878 33.2666 55.8268 33.6353 56.4249 33.8801C57.0753 34.144 57.7723 34.2749 58.4746 34.2651C58.994 34.2562 59.5075 34.1539 59.9905 33.9634C60.5321 33.7589 61.0013 33.4003 61.3398 32.9323H61.382V33.9123C61.3937 34.2392 61.3396 34.5651 61.2229 34.8708C61.1061 35.1765 60.929 35.4559 60.7021 35.6924C60.4141 35.946 60.0774 36.1388 59.7124 36.2592C59.3474 36.3795 58.9617 36.4248 58.5786 36.3924C57.9712 36.3991 57.3691 36.2785 56.8117 36.0382C56.257 35.7914 55.7395 35.4692 55.2739 35.0806L53.5379 37.6601C54.2475 38.2291 55.0769 38.6313 55.9644 38.8368C56.8426 39.0378 57.7408 39.139 58.6419 39.1385C60.6219 39.1385 62.0964 38.6422 63.0653 37.6496C64.0342 36.657 64.5189 35.2028 64.5193 33.2872V24.0213H61.6365L61.633 25.3541ZM61.4446 29.9664C61.3208 30.2627 61.1394 30.5318 60.9109 30.7581C60.6782 30.9889 60.4055 31.1758 60.1058 31.3097C59.7947 31.4472 59.458 31.5183 59.1176 31.5183C58.7771 31.5183 58.4405 31.4472 58.1293 31.3097C57.8337 31.1739 57.5645 30.9872 57.3341 30.7581C57.1046 30.5298 56.9225 30.2588 56.7983 29.9604C56.674 29.6621 56.6101 29.3423 56.6101 29.0193C56.6101 28.6963 56.674 28.3765 56.7983 28.0781C56.9225 27.7798 57.1046 27.5087 57.3341 27.2805C57.5646 27.0514 57.8338 26.8645 58.1293 26.7282C58.4406 26.5911 58.7772 26.5203 59.1176 26.5203C59.4579 26.5203 59.7945 26.5911 60.1058 26.7282C60.4053 26.8626 60.6781 27.0497 60.9109 27.2805C61.256 27.6259 61.4909 28.0651 61.5858 28.5431C61.6808 29.021 61.6316 29.5162 61.4446 29.9664Z" fill="black"/>
<path id="Vector_7" d="M76.306 25.2189C75.7837 24.7462 75.1724 24.3814 74.5074 24.1458C73.079 23.6464 71.5223 23.6464 70.0939 24.1458C69.4287 24.3813 68.817 24.746 68.2946 25.2189C67.7822 25.6891 67.3729 26.2596 67.0923 26.8947C66.8022 27.5874 66.6528 28.3305 66.6528 29.0811C66.6528 29.8317 66.8022 30.5748 67.0923 31.2676C67.3719 31.9044 67.7813 32.4765 68.2946 32.9476C68.8165 33.4209 69.4283 33.7855 70.0939 34.02C71.5222 34.5202 73.0791 34.5202 74.5074 34.02C75.1727 33.7853 75.7842 33.4207 76.306 32.9476C76.8193 32.4765 77.2288 31.9044 77.5084 31.2676C77.7984 30.5748 77.9478 29.8317 77.9478 29.0811C77.9478 28.3305 77.7984 27.5874 77.5084 26.8947C77.2277 26.2596 76.8184 25.6891 76.306 25.2189ZM74.1516 30.9351C73.6436 31.3907 72.9841 31.6428 72.3003 31.6428C71.6165 31.6428 70.957 31.3907 70.449 30.9351C70.022 30.4103 69.789 29.7554 69.789 29.0801C69.789 28.4047 70.022 27.7498 70.449 27.2251C70.957 26.7694 71.6165 26.5173 72.3003 26.5173C72.9841 26.5173 73.6436 26.7694 74.1516 27.2251C74.5786 27.7498 74.8116 28.4047 74.8116 29.0801C74.8116 29.7554 74.5786 30.4103 74.1516 30.9351Z" fill="black"/>
<path id="Vector_8" d="M82.1096 24.0913H80.427V34.1412H82.1096V24.0913Z" fill="black"/>
<path id="Vector_9" d="M81.2687 18.9377C81.1055 18.9346 80.9435 18.9655 80.793 19.0283C80.6425 19.0911 80.5069 19.1844 80.3947 19.3024C80.2236 19.4741 80.1074 19.6924 80.0608 19.9298C80.0141 20.1671 80.039 20.4129 80.1325 20.6362C80.2259 20.8594 80.3836 21.0502 80.5857 21.1843C80.7879 21.3185 81.0254 21.3901 81.2683 21.3901C81.5112 21.3901 81.7487 21.3185 81.9509 21.1843C82.153 21.0502 82.3107 20.8594 82.4042 20.6362C82.4976 20.4129 82.5225 20.1671 82.4759 19.9298C82.4292 19.6924 82.313 19.4741 82.1419 19.3024C82.03 19.1844 81.8944 19.091 81.744 19.0282C81.5936 18.9654 81.4317 18.9346 81.2687 18.9377Z" fill="black"/>
<path id="Vector_10" d="M94.5556 25.3399C94.0823 24.8588 93.5129 24.4818 92.8843 24.2332C92.1943 23.9625 91.4581 23.8277 90.7165 23.8363C90.018 23.8283 89.3272 23.983 88.6993 24.2878C88.0808 24.594 87.5334 25.0253 87.0919 25.5541H87.0469V24.0911H85.3665V39.0375H87.0469V32.3595H87.0898C87.447 32.972 87.9676 33.474 88.5938 33.8099C89.3208 34.2152 90.1437 34.4192 90.9767 34.4007C91.6587 34.405 92.3343 34.2697 92.9616 34.0031C93.5673 33.7474 94.114 33.371 94.5682 32.8971C95.0295 32.4129 95.3922 31.8443 95.6363 31.2227C96.1538 29.8668 96.1538 28.3689 95.6363 27.0129C95.39 26.39 95.0228 25.8214 94.5556 25.3399ZM93.9622 30.5899C93.8053 31.0275 93.56 31.4284 93.2413 31.7678C92.9226 32.1072 92.5374 32.378 92.1094 32.5632C91.1632 32.949 90.1025 32.949 89.1563 32.5632C88.7277 32.378 88.342 32.107 88.0229 31.7672C87.7038 31.4274 87.4583 31.026 87.3015 30.5878C86.9712 29.6354 86.9712 28.6003 87.3015 27.6478C87.4583 27.2097 87.7038 26.8082 88.0229 26.4684C88.342 26.1286 88.7277 25.8577 89.1563 25.6724C90.1025 25.2866 91.1632 25.2866 92.1094 25.6724C92.538 25.8577 92.9238 26.1286 93.2428 26.4684C93.5619 26.8082 93.8074 27.2097 93.9643 27.6478C94.2945 28.6003 94.2945 29.6354 93.9643 30.5878L93.9622 30.5899Z" fill="black"/>
<path id="Vector_11" d="M104.5 29.12C104.18 28.882 103.824 28.6971 103.445 28.5726C103.029 28.4328 102.604 28.3215 102.173 28.2394C101.849 28.1844 101.529 28.1129 101.213 28.0252C100.931 27.949 100.657 27.8483 100.393 27.7242C100.182 27.6288 99.9906 27.4938 99.8304 27.3266C99.6941 27.1771 99.6209 26.9811 99.6258 26.7792C99.6225 26.5614 99.6865 26.3478 99.8093 26.1674C99.9302 25.9892 100.088 25.8391 100.273 25.7271C100.47 25.6083 100.685 25.5214 100.91 25.4695C101.14 25.4128 101.376 25.3839 101.613 25.3834C102.064 25.3694 102.509 25.4851 102.896 25.7166C103.245 25.9353 103.537 26.2332 103.748 26.586L105.15 25.6627C104.84 25.0524 104.335 24.5615 103.715 24.2662C103.091 23.9774 102.409 23.8308 101.72 23.8371C101.253 23.836 100.789 23.9011 100.34 24.0303C99.9101 24.1524 99.5022 24.3414 99.1315 24.5903C98.777 24.8286 98.4819 25.1444 98.2688 25.5136C98.0481 25.9068 97.9365 26.3513 97.9453 26.8016C97.9277 27.2424 98.0282 27.6799 98.2364 28.0693C98.4264 28.395 98.6915 28.6709 99.0099 28.8743C99.3613 29.095 99.7425 29.2649 100.142 29.379C100.574 29.5078 101.027 29.6224 101.501 29.7227C101.775 29.7801 102.041 29.8445 102.299 29.9159C102.541 29.9806 102.774 30.0782 102.99 30.2057C103.18 30.318 103.345 30.4679 103.475 30.646C103.604 30.8433 103.668 31.0762 103.658 31.3117C103.666 31.5592 103.598 31.8032 103.464 32.0117C103.33 32.2093 103.153 32.3744 102.947 32.4947C102.723 32.6274 102.479 32.7221 102.224 32.7747C101.965 32.8313 101.701 32.8601 101.436 32.8608C100.912 32.881 100.393 32.7544 99.9373 32.4954C99.5183 32.2299 99.1496 31.893 98.8481 31.5L97.5122 32.5311C97.9258 33.1705 98.5128 33.6802 99.2053 34.0011C99.9151 34.2816 100.674 34.4168 101.438 34.3987C101.935 34.3991 102.431 34.3416 102.914 34.2272C103.375 34.1213 103.813 33.936 104.209 33.6798C104.587 33.4298 104.9 33.0939 105.123 32.6998C105.364 32.2525 105.484 31.75 105.469 31.2424C105.482 30.806 105.394 30.3725 105.21 29.9761C105.043 29.6401 104.8 29.3471 104.5 29.12Z" fill="black"/>
<path id="Vector_12" d="M116.622 31.7577V24.0913H114.939V28.9913C114.945 29.5196 114.883 30.0464 114.756 30.5593C114.648 30.999 114.457 31.4142 114.193 31.7829C113.943 32.1257 113.609 32.3991 113.222 32.5774C112.778 32.7738 112.296 32.8695 111.81 32.8574C111.481 32.8839 111.151 32.8314 110.847 32.7043C110.543 32.5773 110.274 32.3794 110.062 32.1273C109.658 31.5418 109.46 30.8395 109.5 30.1302V24.0913H107.817V30.2975C107.812 30.8601 107.888 31.4205 108.044 31.9614C108.179 32.441 108.419 32.8849 108.747 33.2613C109.075 33.6293 109.484 33.9168 109.942 34.1013C110.488 34.3135 111.071 34.4158 111.657 34.4023C112.051 34.4055 112.444 34.351 112.822 34.2406C113.164 34.1416 113.49 33.9973 113.793 33.8115C114.068 33.6428 114.318 33.4369 114.536 33.1997C114.733 32.9887 114.897 32.7497 115.022 32.4906H115.065C115.065 32.7776 115.072 33.0576 115.087 33.3306C115.102 33.6036 115.109 33.8757 115.108 34.1468H116.705C116.705 33.8169 116.69 33.4517 116.661 33.0513C116.632 32.6509 116.619 32.2197 116.622 31.7577Z" fill="black"/>
<path id="Vector_13" d="M134.806 26.2927C134.694 25.8065 134.472 25.3518 134.158 24.9627C133.842 24.5863 133.433 24.2971 132.972 24.1227C132.392 23.9142 131.777 23.8159 131.16 23.8329C130.49 23.8038 129.828 23.98 129.262 24.3376C128.737 24.7123 128.297 25.1915 127.968 25.7446C127.882 25.5724 127.77 25.3755 127.633 25.1538C127.481 24.9145 127.287 24.7036 127.062 24.5308C126.785 24.3211 126.476 24.1558 126.148 24.0408C125.706 23.8932 125.243 23.824 124.777 23.8364C124.383 23.8332 123.991 23.8877 123.613 23.9981C123.271 24.0971 122.945 24.2415 122.642 24.4272C122.367 24.5962 122.117 24.8021 121.898 25.039C121.702 25.25 121.538 25.489 121.413 25.7481H121.369C121.369 25.4611 121.362 25.1825 121.348 24.9081C121.334 24.6337 121.326 24.3642 121.326 24.0919H119.73C119.73 24.4219 119.745 24.787 119.773 25.1874C119.802 25.5878 119.816 26.0174 119.816 26.4761V34.1418H121.5V29.246C121.495 28.7175 121.556 28.1905 121.684 27.6773C121.791 27.2375 121.982 26.8222 122.246 26.4537C122.496 26.1109 122.83 25.8374 123.216 25.6592C123.661 25.4627 124.143 25.3671 124.63 25.3792C124.918 25.3548 125.207 25.4066 125.468 25.5296C125.73 25.6525 125.954 25.8422 126.117 26.0792C126.479 26.8158 126.635 27.6351 126.571 28.4522V34.1432H128.25V28.343C128.245 27.9297 128.315 27.5188 128.455 27.1299C128.58 26.7852 128.771 26.468 129.018 26.1961C129.251 25.9417 129.533 25.7371 129.848 25.5948C130.167 25.4513 130.513 25.378 130.862 25.3799C131.278 25.3649 131.691 25.4457 132.07 25.6158C132.369 25.7595 132.628 25.9736 132.825 26.2395C133.014 26.5028 133.147 26.8024 133.213 27.1194C133.285 27.4511 133.321 27.7895 133.321 28.1288V34.1418H135V28.0427C135.006 27.4538 134.941 26.8662 134.806 26.2927Z" fill="black"/>
</g>
</g>
<defs>
<clipPath id="clip0_4_994">
<rect width="135" height="56" fill="white"/>
</clipPath>
</defs>
</svg>
