<svg width="14" height="19" viewBox="0 0 14 19" fill="none" xmlns="http://www.w3.org/2000/svg">
<g id="Group">
<path id="Vector" d="M11.952 2.05193C10.6329 0.750899 8.85471 0.0214844 7.00199 0.0214844C5.14927 0.0214844 3.37104 0.750899 2.05199 2.05193C-0.980007 5.08693 0.351993 8.73793 1.61999 11.2209C1.79599 11.5639 1.99299 11.8989 2.19899 12.2259L6.15699 18.5309C6.24698 18.6743 6.3719 18.7925 6.52005 18.8744C6.66819 18.9564 6.83471 18.9993 7.00399 18.9993C7.17328 18.9993 7.3398 18.9564 7.48794 18.8744C7.63608 18.7925 7.761 18.6743 7.85099 18.5309L11.851 12.1609C12.027 11.8779 12.198 11.5879 12.351 11.2919C13.638 8.78793 15 5.09993 11.952 2.05193ZM10.568 10.3769C10.442 10.6239 10.299 10.8649 10.152 11.0989L6.99999 16.1199L3.88799 11.1639C3.71399 10.8869 3.54599 10.6039 3.39699 10.3119C1.79199 7.16693 1.81199 5.11893 3.46299 3.46593C4.40721 2.53913 5.67743 2.0199 7.00049 2.0199C8.32356 2.0199 9.59378 2.53913 10.538 3.46593C12.2 5.12893 12.209 7.19993 10.568 10.3769Z" fill="#51958C"/>
<path id="Vector_2" d="M7 4C6.40666 4 5.82664 4.17595 5.33329 4.50559C4.83994 4.83524 4.45543 5.30377 4.22836 5.85195C4.0013 6.40013 3.94189 7.00333 4.05765 7.58527C4.1734 8.16721 4.45912 8.70176 4.87868 9.12132C5.29824 9.54088 5.83279 9.8266 6.41473 9.94236C6.99667 10.0581 7.59987 9.9987 8.14805 9.77164C8.69623 9.54458 9.16477 9.16006 9.49441 8.66671C9.82405 8.17336 10 7.59334 10 7C10 6.20435 9.68393 5.44129 9.12132 4.87868C8.55871 4.31607 7.79565 4 7 4ZM7 8C6.80222 8 6.60888 7.94135 6.44443 7.83147C6.27998 7.72159 6.15181 7.56541 6.07612 7.38268C6.00043 7.19996 5.98063 6.99889 6.01922 6.80491C6.0578 6.61093 6.15304 6.43275 6.2929 6.29289C6.43275 6.15304 6.61093 6.0578 6.80491 6.01921C6.99889 5.98063 7.19996 6.00043 7.38269 6.07612C7.56541 6.15181 7.72159 6.27998 7.83147 6.44443C7.94135 6.60888 8 6.80222 8 7C8 7.26522 7.89464 7.51957 7.70711 7.70711C7.51957 7.89464 7.26522 8 7 8Z" fill="#51958C"/>
</g>
</svg>
